<svg viewBox="0 0 311 185" fill="none" xmlns="http://www.w3.org/2000/svg">
<g clip-path="url(#clip0)">
<path d="M287.382 2.25959H178.059V0H128.488V2.25959H18.7153C17.7442 2.25959 16.7826 2.4514 15.8854 2.82408C14.9882 3.19675 14.173 3.74299 13.4863 4.4316C12.7997 5.12021 12.255 5.93772 11.8833 6.83743C11.5117 7.73715 11.3204 8.70145 11.3204 9.6753V159.794C11.3204 160.768 11.5117 161.732 11.8833 162.632C12.255 163.532 12.7997 164.349 13.4863 165.038C14.173 165.726 14.9882 166.273 15.8854 166.645C16.7826 167.018 17.7442 167.21 18.7153 167.21H287.382C289.343 167.21 291.224 166.428 292.611 165.038C293.998 163.647 294.777 161.761 294.777 159.794V9.6753C294.777 8.70145 294.585 7.73715 294.214 6.83743C293.842 5.93772 293.297 5.12021 292.611 4.4316C291.924 3.74299 291.109 3.19675 290.212 2.82408C289.315 2.4514 288.353 2.25959 287.382 2.25959Z" fill="#3F3D56"/>
<path d="M284.863 15.3652H21.2347V164.498H284.863V15.3652Z" fill="#F9A826"/>
<path d="M152.823 11.298C154.317 11.298 155.527 10.084 155.527 8.58645C155.527 7.08892 154.317 5.87494 152.823 5.87494C151.33 5.87494 150.119 7.08892 150.119 8.58645C150.119 10.084 151.33 11.298 152.823 11.298Z" fill="#F9A826"/>
<path opacity="0.1" d="M209.469 164.498H21.2347V15.3653L209.469 164.498Z" fill="black"/>
<path d="M62.4845 153.339C76.4798 153.339 87.8253 141.961 87.8253 127.926C87.8253 113.891 76.4798 102.514 62.4845 102.514C48.4892 102.514 37.1438 113.891 37.1438 127.926C37.1438 141.961 48.4892 153.339 62.4845 153.339Z" fill="#F2F2F2"/>
<path d="M68.1256 147.026C61.8913 147.026 55.797 145.172 50.6133 141.699C45.4296 138.225 41.3895 133.288 39.0037 127.512C36.6179 121.736 35.9937 115.381 37.2099 109.249C38.4262 103.117 41.4283 97.4845 45.8366 93.0637C50.245 88.6429 55.8616 85.6323 61.9761 84.4126C68.0907 83.1929 74.4286 83.8189 80.1884 86.2115C85.9481 88.604 90.8711 92.6555 94.3347 97.8538C97.7983 103.052 99.647 109.164 99.647 115.416C99.6376 123.796 96.3135 131.831 90.4042 137.757C84.4948 143.683 76.4827 147.017 68.1256 147.026ZM68.1256 84.2185C61.9728 84.2185 55.9581 86.0481 50.8422 89.4761C45.7263 92.9041 41.739 97.7765 39.3844 103.477C37.0298 109.178 36.4137 115.45 37.6141 121.502C38.8144 127.554 41.7773 133.112 46.128 137.475C50.4787 141.838 56.0219 144.81 62.0565 146.013C68.0911 147.217 74.3462 146.599 80.0307 144.238C85.7151 141.877 90.5738 137.878 93.9921 132.748C97.4104 127.618 99.235 121.586 99.235 115.416C99.2257 107.145 95.9451 99.2148 90.113 93.3662C84.2808 87.5176 76.3735 84.2278 68.1256 84.2185Z" fill="#3F3D56"/>
<path d="M238.961 95.7938H214.335V100.954H238.961V95.7938Z" fill="#3F3D56"/>
<path d="M268.732 55.618H184.563V57.8295H268.732V55.618Z" fill="#3F3D56"/>
<path d="M268.732 62.6211H184.563V64.8326H268.732V62.6211Z" fill="#3F3D56"/>
<path d="M268.732 69.6242H184.563V71.8357H268.732V69.6242Z" fill="#3F3D56"/>
<path d="M268.732 76.6274H184.563V78.8389H268.732V76.6274Z" fill="#3F3D56"/>
<path d="M268.732 83.6305H184.563V85.842H268.732V83.6305Z" fill="#3F3D56"/>
<path d="M268.732 18.3908H258.441V28.7112H268.732V18.3908Z" fill="#F2F2F2"/>
<path d="M273.51 33.5028H261.013V20.9709H273.51V33.5028ZM261.557 32.958H272.967V21.5158H261.557V32.958Z" fill="#3F3D56"/>
<path d="M302.179 161.787H276.451V159.928C276.451 159.879 276.441 159.831 276.422 159.787C276.404 159.742 276.377 159.701 276.343 159.667C276.309 159.633 276.268 159.606 276.224 159.587C276.179 159.569 276.131 159.559 276.083 159.559H267.262C267.214 159.559 267.166 159.569 267.121 159.587C267.077 159.606 267.036 159.633 267.002 159.667C266.968 159.701 266.941 159.742 266.922 159.787C266.904 159.831 266.894 159.879 266.894 159.928V161.787H261.381V159.928C261.381 159.879 261.371 159.831 261.353 159.787C261.335 159.742 261.307 159.701 261.273 159.667C261.239 159.633 261.199 159.606 261.154 159.587C261.109 159.569 261.062 159.559 261.013 159.559H252.192C252.144 159.559 252.096 159.569 252.052 159.587C252.007 159.606 251.967 159.633 251.932 159.667C251.898 159.701 251.871 159.742 251.853 159.787C251.834 159.831 251.825 159.879 251.825 159.928V161.787H246.312V159.928C246.312 159.879 246.302 159.831 246.284 159.787C246.265 159.742 246.238 159.701 246.204 159.667C246.17 159.633 246.129 159.606 246.085 159.587C246.04 159.569 245.992 159.559 245.944 159.559H237.123C237.075 159.559 237.027 159.569 236.982 159.587C236.938 159.606 236.897 159.633 236.863 159.667C236.829 159.701 236.802 159.742 236.783 159.787C236.765 159.831 236.755 159.879 236.755 159.928V161.787H231.242V159.928C231.242 159.879 231.233 159.831 231.214 159.787C231.196 159.742 231.169 159.701 231.134 159.667C231.1 159.633 231.06 159.606 231.015 159.587C230.971 159.569 230.923 159.559 230.875 159.559H222.053C222.005 159.559 221.957 159.569 221.913 159.587C221.868 159.606 221.828 159.633 221.793 159.667C221.759 159.701 221.732 159.742 221.714 159.787C221.695 159.831 221.686 159.879 221.686 159.928V161.787H216.173V159.928C216.173 159.879 216.163 159.831 216.145 159.787C216.126 159.742 216.099 159.701 216.065 159.667C216.031 159.633 215.99 159.606 215.946 159.587C215.901 159.569 215.853 159.559 215.805 159.559H206.984C206.936 159.559 206.888 159.569 206.843 159.587C206.799 159.606 206.758 159.633 206.724 159.667C206.69 159.701 206.663 159.742 206.644 159.787C206.626 159.831 206.616 159.879 206.616 159.928V161.787H201.103V159.928C201.103 159.879 201.094 159.831 201.075 159.787C201.057 159.742 201.03 159.701 200.995 159.667C200.961 159.633 200.921 159.606 200.876 159.587C200.832 159.569 200.784 159.559 200.736 159.559H191.914C191.866 159.559 191.818 159.569 191.774 159.587C191.729 159.606 191.689 159.633 191.655 159.667C191.62 159.701 191.593 159.742 191.575 159.787C191.556 159.831 191.547 159.879 191.547 159.928V161.787H186.034V159.928C186.034 159.879 186.024 159.831 186.006 159.787C185.987 159.742 185.96 159.701 185.926 159.667C185.892 159.633 185.851 159.606 185.807 159.587C185.762 159.569 185.714 159.559 185.666 159.559H116.567C116.519 159.559 116.471 159.569 116.426 159.587C116.382 159.606 116.341 159.633 116.307 159.667C116.273 159.701 116.246 159.742 116.227 159.787C116.209 159.831 116.2 159.879 116.2 159.928V161.787H110.686V159.928C110.686 159.879 110.677 159.831 110.658 159.787C110.64 159.742 110.613 159.701 110.579 159.667C110.545 159.633 110.504 159.606 110.459 159.587C110.415 159.569 110.367 159.559 110.319 159.559H101.498C101.449 159.559 101.402 159.569 101.357 159.587C101.312 159.606 101.272 159.633 101.238 159.667C101.204 159.701 101.177 159.742 101.158 159.787C101.14 159.831 101.13 159.879 101.13 159.928V161.787H95.6168V159.928C95.6168 159.879 95.6073 159.831 95.5889 159.787C95.5704 159.742 95.5433 159.701 95.5092 159.667C95.475 159.633 95.4345 159.606 95.3899 159.587C95.3453 159.569 95.2975 159.559 95.2493 159.559H86.4281C86.3799 159.559 86.332 159.569 86.2875 159.587C86.2429 159.606 86.2024 159.633 86.1682 159.667C86.1341 159.701 86.107 159.742 86.0885 159.787C86.0701 159.831 86.0606 159.879 86.0606 159.928V161.787H80.5473V159.928C80.5473 159.879 80.5378 159.831 80.5194 159.787C80.5009 159.742 80.4738 159.701 80.4397 159.667C80.4056 159.633 80.365 159.606 80.3204 159.587C80.2759 159.569 80.2281 159.559 80.1798 159.559H71.3586C71.3104 159.559 71.2626 159.569 71.218 159.587C71.1734 159.606 71.1329 159.633 71.0987 159.667C71.0646 159.701 71.0376 159.742 71.0191 159.787C71.0006 159.831 70.9911 159.879 70.9911 159.928V161.787H65.4779V159.928C65.4779 159.879 65.4684 159.831 65.4499 159.787C65.4314 159.742 65.4044 159.701 65.3702 159.667C65.3361 159.633 65.2956 159.606 65.251 159.587C65.2064 159.569 65.1586 159.559 65.1103 159.559H56.2892C56.2409 159.559 56.1931 159.569 56.1485 159.587C56.1039 159.606 56.0634 159.633 56.0293 159.667C55.9952 159.701 55.9681 159.742 55.9496 159.787C55.9311 159.831 55.9216 159.879 55.9216 159.928V161.787H50.4084V159.928C50.4084 159.879 50.3989 159.831 50.3804 159.787C50.362 159.742 50.3349 159.701 50.3007 159.667C50.2666 159.633 50.2261 159.606 50.1815 159.587C50.1369 159.569 50.0891 159.559 50.0409 159.559H41.2197C41.1714 159.559 41.1236 159.569 41.0791 159.587C41.0345 159.606 40.9939 159.633 40.9598 159.667C40.9257 159.701 40.8986 159.742 40.8801 159.787C40.8617 159.831 40.8522 159.879 40.8522 159.928V161.787H35.3389V159.928C35.3389 159.879 35.3294 159.831 35.311 159.787C35.2925 159.742 35.2654 159.701 35.2313 159.667C35.1972 159.633 35.1566 159.606 35.112 159.587C35.0675 159.569 35.0197 159.559 34.9714 159.559H26.1502C26.102 159.559 26.0542 159.569 26.0096 159.587C25.965 159.606 25.9245 159.633 25.8903 159.667C25.8562 159.701 25.8291 159.742 25.8107 159.787C25.7922 159.831 25.7827 159.879 25.7827 159.928V161.787H8.87547C6.53595 161.787 4.29226 162.719 2.63798 164.378C0.983692 166.037 0.0543224 168.287 0.0543213 170.633V174.633C0.054328 176.979 0.983692 179.229 2.63798 180.888C4.29226 182.547 6.53596 183.479 8.87547 183.479H302.179C304.518 183.479 306.762 182.547 308.416 180.888C310.071 179.229 311 176.979 311 174.633V170.633C311 168.287 310.071 166.037 308.416 164.378C306.762 162.719 304.518 161.787 302.179 161.787Z" fill="#3F3D56"/>
</g>
<defs>
<clipPath id="clip0">
<rect width="311" height="184.379" fill="white"/>
</clipPath>
</defs>
</svg>
