<?xml version="1.0" encoding="utf-8"?>
<!-- Generator: Adobe Illustrator 23.0.1, SVG Export Plug-In . SVG Version: 6.00 Build 0)  -->
<svg version="1.1" id="Layer_1" xmlns="http://www.w3.org/2000/svg" xmlns:xlink="http://www.w3.org/1999/xlink" x="0px" y="0px"
	 viewBox="0 0 1536 1536" style="enable-background:new 0 0 1536 1536;" xml:space="preserve">
<style type="text/css">
	.st0{fill:#F9F9F9;}
</style>
<path class="st0" d="M237,1286h231V592H237V1286z M483,378c-0.7-34.7-12.7-63.3-36-86s-54.3-34-93-34s-70.2,11.3-94.5,34
	S223,343.3,223,378c0,34,11.8,62.5,35.5,85.5S313,498,351,498h1c39.3,0,71-11.5,95-34.5S483,412,483,378z M1068,1286h231V888
	c0-102.7-24.3-180.3-73-233s-113-79-193-79c-90.7,0-160.3,39-209,117h2V592H595c2,44,2,275.3,0,694h231V898c0-25.3,2.3-44,7-56
	c10-23.3,25-43.2,45-59.5s44.7-24.5,74-24.5c77.3,0,116,52.3,116,157V1286z M1536,288v960c0,79.3-28.2,147.2-84.5,203.5
	S1327.3,1536,1248,1536H288c-79.3,0-147.2-28.2-203.5-84.5S0,1327.3,0,1248V288c0-79.3,28.2-147.2,84.5-203.5S208.7,0,288,0h960
	c79.3,0,147.2,28.2,203.5,84.5S1536,208.7,1536,288z"/>
</svg>
