<?xml version="1.0" encoding="utf-8"?>
<!-- Generator: Adobe Illustrator 23.0.1, SVG Export Plug-In . SVG Version: 6.00 Build 0)  -->
<svg width="18px" height="18px" version="1.1" id="Layer_1" xmlns="http://www.w3.org/2000/svg" xmlns:xlink="http://www.w3.org/1999/xlink" x="0px" y="0px"
	 viewBox="0 0 24 24" style="enable-background:new 0 0 24 24;" xml:space="preserve">
<style type="text/css">
	.st0{fill:none;}
	.st1{opacity:0.35;fill:#F9A826;enable-background:new    ;}
</style>
<path class="st0" d="M0,0h24v24H0V0z"/>
<path class="st1" d="M17.5,8c0.5,0,0.9-0.1,1.3-0.1C17.4,5.6,14.9,4,12,4c-0.5,0-0.9,0.1-1.3,0.1C12.1,6.4,14.6,8,17.5,8z M8.1,5
	c-1.7,1-3,2.5-3.7,4.4C6.1,8.5,7.4,6.9,8.1,5z"/>
<path d="M12,2C6.5,2,2,6.5,2,12s4.5,10,10,10s10-4.5,10-10S17.5,2,12,2z M12,4c2.9,0,5.4,1.6,6.8,3.9C18.4,8,18,8,17.5,8
	c-2.9,0-5.4-1.6-6.8-3.9C11.1,4,11.5,4,12,4z M8.1,5C7.4,6.9,6.1,8.5,4.4,9.5C5.1,7.6,6.4,6,8.1,5z M12,20c-4.4,0-8-3.6-8-8
	c0-0.1,0-0.1,0-0.1c2.6-1,4.7-3,5.7-5.6c1.8,2.3,4.6,3.7,7.8,3.7c0.8,0,1.5-0.1,2.2-0.2c0.2,0.7,0.3,1.5,0.3,2.2
	C20,16.4,16.4,20,12,20z"/>
<circle cx="9" cy="13" r="1.3"/>
<circle cx="15" cy="13" r="1.3"/>
</svg>
